{"title":"Mandrake.2010.DvDRip.XviD.Ac3.Feel-Free","uid":6319928,"size":924299669,"categoryP":"video","categoryS":"movies","magnet":"?xt=urn:btih:651067b01fc0108337e39b08b6f8703a95d991fc&amp;dn=Mandrake.2010.DvDRip.XviD.Ac3.Feel-Free&amp;tr=udp%3A%2F%2Ftracker.openbittorrent.com%3A80&amp;tr=udp%3A%2F%2Fopen.demonii.com%3A1337&amp;tr=udp%3A%2F%2Ftracker.coppersurfer.tk%3A6969&amp;tr=udp%3A%2F%2Fexodus.desync.com%3A6969","seeders":0,"leechers":1,"uploader":"qwersd","files":9,"time":1302916851,"description":"Genre:Adventure | Fantasy | Horror \nLanguage:English\nIMDb:http://www.imdb.com/title/tt1523367/\nSource:DVD\n\n\nFormat : AVI\nFormat/Info : Audio Video Interleave\nFile size : 880 MiB\nDuration : 1h 29mn\nOverall bit rate : 1 379 Kbps\n\n\nVideo\nID : 0\nFormat : MPEG-4 Visual\nFormat profile : Advanced Simple@L5\nFormat settings, BVOP : Yes\nFormat settings, QPel : No\nFormat settings, GMC : No warppoints\nFormat settings, Matrix : Default (H.263)\nMuxing mode : Packed bitstream\nCodec ID : XVID\nCodec ID/Hint : XviD\nDuration : 1h 29mn\nBit rate : 921 Kbps\nWidth : 720 pixels\nHeight : 400 pixels\nDisplay aspect ratio : 16:9\nFrame rate : 23.976 fps\nColor space : YUV\nChroma subsampling : 4:2:0\nBit depth : 8 bits\nScan type : Progressive\nBits/(Pixel*Frame) : 0.133\nStream size : 588 MiB (67%)\nWriting library : XviD 1.2.1 (UTC 2008-12-04)\n\nAudio\nID : 1\nFormat : AC-3\nFormat/Info : Audio Coding 3\nMode extension : CM (complete main)\nCodec ID : 2000\nDuration : 1h 29mn\nBit rate mode : Constant\nBit rate : 448 Kbps\nChannel(s) : 6 channels\nChannel positions : Front: L C R, Side: L R, LFE\nSampling rate : 48.0 KHz\nBit depth : 16 bits\nStream size : 286 MiB (32%)\nAlignment : Split accross interleaves\nInterleave, duration : 42 ms (1.00 video frame)\nInterleave, preload duration : 500 ms\n\n\nPlot:\nAn expedition led by adventurer DARREN McCALL and funded by the wealthy Harry Vargas braves the impenetrable jungle to retrieve a fabled bejeweled dagger from an ancient burial ground...\n\nScreens:\n &lt;a href=&quot;\nhttp://www.pix2links.com/images/79458812579999821018.png&quot; rel=&quot;nofollow&quot; target=&quot;_NEW&quot;&gt;\nhttp://www.pix2links.com/images/79458812579999821018.png&lt;/a&gt; &lt;a href=&quot;\nhttp://www.pix2links.com/images/89633354305690257146.png&quot; rel=&quot;nofollow&quot; target=&quot;_NEW&quot;&gt;\nhttp://www.pix2links.com/images/89633354305690257146.png&lt;/a&gt; &lt;a href=&quot;\nhttp://www.pix2links.com/images/92563284698605265646.png&quot; rel=&quot;nofollow&quot; target=&quot;_NEW&quot;&gt;\nhttp://www.pix2links.com/images/92563284698605265646.png&lt;/a&gt; &lt;a href=&quot;\nhttp://www.pix2links.com/images/65552888800295563289.png&quot; rel=&quot;nofollow&quot; target=&quot;_NEW&quot;&gt;\nhttp://www.pix2links.com/images/65552888800295563289.png&lt;/a&gt; &lt;a href=&quot;\nhttp://www.pix2links.com/images/15196533090746271239.png&quot; rel=&quot;nofollow&quot; target=&quot;_NEW&quot;&gt;\nhttp://www.pix2links.com/images/15196533090746271239.png&lt;/a&gt;\n\nGreets:\n\nINK,CRYS,IMAGINE,LKRG,FXG,3Li,FLAWL3SS,TA,iLLUSiON,ViSiON,DTRG SAFCuk009,LU,TheFalcon007,MYSTiC,PrisM,Noir,WBZ,LAP,Rx,Kingdom,SAFCuk009+Fabreezy,HDLiTE,TWiZTED,ExtraTorrentRG.ELEKTRI4KA,MAGNAT,CM8\nAnd to all the other p2p grps past and present.","torrent":{"xt":"urn:btih:651067b01fc0108337e39b08b6f8703a95d991fc","amp;dn":"Mandrake.2010.DvDRip.XviD.Ac3.Feel-Free","amp;tr":["udp%3A%2F%2Ftracker.openbittorrent.com%3A80","udp%3A%2F%2Fopen.demonii.com%3A1337","udp%3A%2F%2Ftracker.coppersurfer.tk%3A6969","udp%3A%2F%2Fexodus.desync.com%3A6969"],"infoHash":"651067b01fc0108337e39b08b6f8703a95d991fc","infoHashBuffer":{"type":"Buffer","data":[101,16,103,176,31,192,16,131,55,227,155,8,182,248,112,58,149,217,145,252]},"announce":[],"urlList":[]}}